<svg xmlns="http://www.w3.org/2000/svg" width="1600" height="1100" viewBox="0 0 1600 1100">
<rect width="100%" height="100%" fill="#ffffff"/>
<style>
text{font-family:Arial,Helvetica,sans-serif;fill:#202426}
.title{font-size:26px;font-weight:700}.subtitle{font-size:13px;fill:#5f6b70}
.paneltitle{font-size:14px;font-weight:700}.small{font-size:10.5px;fill:#5f6b70}
.axis{font-size:11px;fill:#5f6b70}.label{font-size:12px;fill:#202426}
.panelletter{font-size:17px;font-weight:700;fill:#202426}
</style>
<text x="36" y="34" class="title">Figure 5. Break-even and sensitivity surfaces</text>
<text x="36" y="56" class="subtitle">Two-dimensional heat maps show why product price, H2, and power must improve together.</text>
<rect x="40" y="82" width="700" height="430" rx="8" fill="#f7f9f9" stroke="#d6dedf"/>
<text x="52" y="104" class="panelletter">a</text>
<text x="78" y="103" class="paneltitle">Standard-scenario break-even thresholds</text>
<line x1="235.0" y1="150" x2="235.0" y2="420" stroke="#8b969a" stroke-width="1"/>
<rect x="235.0" y="154.86" width="0.1842593955773078" height="14.850000000000001" rx="3" fill="#225f74" stroke="none" opacity="1.0"/>
<text x="229" y="165.66000000000003" text-anchor="end" class="axis">Storage</text>
<text x="239.1842593955773" y="165.66000000000003" text-anchor="start" class="axis">0</text>
<rect x="235.0" y="181.86" width="21.64772153385929" height="14.850000000000001" rx="3" fill="#3d8f63" stroke="none" opacity="1.0"/>
<text x="229" y="192.66000000000003" text-anchor="end" class="axis">Mineralization</text>
<text x="260.6477215338593" y="192.66000000000003" text-anchor="start" class="axis">38</text>
<rect x="235.0" y="208.86" width="214.7724317452813" height="14.850000000000001" rx="3" fill="#c97836" stroke="none" opacity="1.0"/>
<text x="229" y="219.66000000000003" text-anchor="end" class="axis">RWGS-CO</text>
<text x="453.7724317452813" y="219.66000000000003" text-anchor="start" class="axis">379</text>
<rect x="235.0" y="235.86" width="253.48511388383525" height="14.850000000000001" rx="3" fill="#7d63a6" stroke="none" opacity="1.0"/>
<text x="229" y="246.66000000000003" text-anchor="end" class="axis">E-formate</text>
<text x="492.48511388383525" y="246.66000000000003" text-anchor="start" class="axis">447</text>
<rect x="235.0" y="262.86" width="257.49944718253755" height="14.850000000000001" rx="3" fill="#c97836" stroke="none" opacity="1.0"/>
<text x="229" y="273.66" text-anchor="end" class="axis">FT-SAF</text>
<text x="496.49944718253755" y="273.66" text-anchor="start" class="axis">454</text>
<rect x="235.0" y="289.86" width="293.77883607635886" height="14.850000000000001" rx="3" fill="#c97836" stroke="none" opacity="1.0"/>
<text x="229" y="300.66" text-anchor="end" class="axis">Methanol</text>
<text x="532.7788360763589" y="300.66" text-anchor="start" class="axis">518</text>
<rect x="235.0" y="316.86" width="315.62677494536456" height="14.850000000000001" rx="3" fill="#b8a23a" stroke="none" opacity="1.0"/>
<text x="229" y="327.66" text-anchor="end" class="axis">PEC-formate</text>
<text x="554.6267749453646" y="327.66" text-anchor="start" class="axis">557</text>
<rect x="235.0" y="343.86" width="338.5431586865197" height="14.850000000000001" rx="3" fill="#c97836" stroke="none" opacity="1.0"/>
<text x="229" y="354.66" text-anchor="end" class="axis">Methane</text>
<text x="577.5431586865197" y="354.66" text-anchor="start" class="axis">597</text>
<rect x="235.0" y="370.86" width="386.6069473271483" height="14.850000000000001" rx="3" fill="#7d63a6" stroke="none" opacity="1.0"/>
<text x="229" y="381.66" text-anchor="end" class="axis">E-CO</text>
<text x="625.6069473271483" y="381.66" text-anchor="start" class="axis">682</text>
<rect x="235.0" y="397.86" width="420.0" height="14.850000000000001" rx="3" fill="#b8a23a" stroke="none" opacity="1.0"/>
<text x="229" y="408.66" text-anchor="end" class="axis">PCO</text>
<text x="659.0" y="408.66" text-anchor="start" class="axis">741</text>
<line x1="235" y1="420" x2="655" y2="420" stroke="#8b969a" stroke-width="1"/>
<text x="445.0" y="440" text-anchor="middle" class="axis">remaining gap, USD/tCO2</text>
<rect x="780" y="82" width="760" height="430" rx="8" fill="#f7f9f9" stroke="#d6dedf"/>
<text x="792" y="104" class="panelletter">b</text>
<text x="818" y="103" class="paneltitle">Margin improvement from 2030 to 2060</text>
<line x1="950.0" y1="150" x2="950.0" y2="420" stroke="#8b969a" stroke-width="1"/>
<rect x="950.0" y="154.86" width="429.99999999999994" height="14.850000000000001" rx="3" fill="#225f74" stroke="none" opacity="1.0"/>
<text x="944" y="165.66000000000003" text-anchor="end" class="axis">FT-SAF</text>
<text x="1384.0" y="165.66000000000003" text-anchor="start" class="axis">2268</text>
<rect x="950.0" y="181.86" width="350.04293133903025" height="14.850000000000001" rx="3" fill="#225f74" stroke="none" opacity="1.0"/>
<text x="944" y="192.66000000000003" text-anchor="end" class="axis">MTJ-SAF</text>
<text x="1304.0429313390302" y="192.66000000000003" text-anchor="start" class="axis">1846</text>
<rect x="950.0" y="208.86" width="200.13576735483355" height="14.850000000000001" rx="3" fill="#225f74" stroke="none" opacity="1.0"/>
<text x="944" y="219.66000000000003" text-anchor="end" class="axis">E-formate</text>
<text x="1154.1357673548337" y="219.66000000000003" text-anchor="start" class="axis">1055</text>
<rect x="950.0" y="235.86" width="152.76544932736698" height="14.850000000000001" rx="3" fill="#225f74" stroke="none" opacity="1.0"/>
<text x="944" y="246.66000000000003" text-anchor="end" class="axis">Methane</text>
<text x="1106.765449327367" y="246.66000000000003" text-anchor="start" class="axis">806</text>
<rect x="950.0" y="262.86" width="148.01148498195346" height="14.850000000000001" rx="3" fill="#225f74" stroke="none" opacity="1.0"/>
<text x="944" y="273.66" text-anchor="end" class="axis">RWGS-CO</text>
<text x="1102.0114849819533" y="273.66" text-anchor="start" class="axis">781</text>
<rect x="950.0" y="289.86" width="128.350015346973" height="14.850000000000001" rx="3" fill="#225f74" stroke="none" opacity="1.0"/>
<text x="944" y="300.66" text-anchor="end" class="axis">PEC-formate</text>
<text x="1082.3500153469731" y="300.66" text-anchor="start" class="axis">677</text>
<rect x="950.0" y="316.86" width="118.225330023004" height="14.850000000000001" rx="3" fill="#225f74" stroke="none" opacity="1.0"/>
<text x="944" y="327.66" text-anchor="end" class="axis">Methanol</text>
<text x="1072.225330023004" y="327.66" text-anchor="start" class="axis">623</text>
<rect x="950.0" y="343.86" width="92.71526765928935" height="14.850000000000001" rx="3" fill="#225f74" stroke="none" opacity="1.0"/>
<text x="944" y="354.66" text-anchor="end" class="axis">Mineralization</text>
<text x="1046.7152676592893" y="354.66" text-anchor="start" class="axis">489</text>
<rect x="950.0" y="370.86" width="90.78623219482341" height="14.850000000000001" rx="3" fill="#225f74" stroke="none" opacity="1.0"/>
<text x="944" y="381.66" text-anchor="end" class="axis">E-CO</text>
<text x="1044.7862321948235" y="381.66" text-anchor="start" class="axis">479</text>
<rect x="950.0" y="397.86" width="83.14190029472014" height="14.850000000000001" rx="3" fill="#225f74" stroke="none" opacity="1.0"/>
<text x="944" y="408.66" text-anchor="end" class="axis">Storage</text>
<text x="1037.1419002947202" y="408.66" text-anchor="start" class="axis">438</text>
<line x1="950" y1="420" x2="1380" y2="420" stroke="#8b969a" stroke-width="1"/>
<text x="1165.0" y="440" text-anchor="middle" class="axis">USD/tCO2</text>
<rect x="40" y="552" width="700" height="450" rx="8" fill="#f7f9f9" stroke="#d6dedf"/>
<text x="52" y="574" class="panelletter">c</text>
<text x="78" y="573" class="paneltitle">FT-SAF surface: SAF price vs H2 price</text>
<text x="201.66666666666666" y="627" text-anchor="middle" class="axis">4.0</text>
<text x="285.0" y="627" text-anchor="middle" class="axis">6.0</text>
<text x="368.3333333333333" y="627" text-anchor="middle" class="axis">8.0</text>
<text x="451.6666666666667" y="627" text-anchor="middle" class="axis">10.0</text>
<text x="535.0" y="627" text-anchor="middle" class="axis">12.0</text>
<text x="618.3333333333333" y="627" text-anchor="middle" class="axis">14.0</text>
<text x="152" y="659.1666666666666" text-anchor="end" class="axis">0.5</text>
<rect x="160.0" y="635.0" width="82.33333333333333" height="40.666666666666664" rx="0" fill="#e0bcbc" stroke="#ffffff" opacity="1.0"/>
<text x="201.66666666666666" y="660.0" text-anchor="middle" class="small" fill="#202426">-235</text>
<rect x="243.33333333333331" y="635.0" width="82.33333333333333" height="40.666666666666664" rx="0" fill="#d8e1de" stroke="#ffffff" opacity="1.0"/>
<text x="285.0" y="660.0" text-anchor="middle" class="small" fill="#202426">90</text>
<rect x="326.66666666666663" y="635.0" width="82.33333333333333" height="40.666666666666664" rx="0" fill="#779ca6" stroke="#ffffff" opacity="1.0"/>
<text x="368.3333333333333" y="660.0" text-anchor="middle" class="small" fill="#ffffff">416</text>
<rect x="410.0" y="635.0" width="82.33333333333333" height="40.666666666666664" rx="0" fill="#225f74" stroke="#ffffff" opacity="1.0"/>
<text x="451.6666666666667" y="660.0" text-anchor="middle" class="small" fill="#ffffff">741</text>
<rect x="493.3333333333333" y="635.0" width="82.33333333333333" height="40.666666666666664" rx="0" fill="#225f74" stroke="#ffffff" opacity="1.0"/>
<text x="535.0" y="660.0" text-anchor="middle" class="small" fill="#ffffff">1066</text>
<rect x="576.6666666666666" y="635.0" width="82.33333333333333" height="40.666666666666664" rx="0" fill="#225f74" stroke="#ffffff" opacity="1.0"/>
<text x="618.3333333333333" y="660.0" text-anchor="middle" class="small" fill="#ffffff">1392</text>
<text x="152" y="700.8333333333333" text-anchor="end" class="axis">1.0</text>
<rect x="160.0" y="676.6666666666666" width="82.33333333333333" height="40.666666666666664" rx="0" fill="#d9a8ab" stroke="#ffffff" opacity="1.0"/>
<text x="201.66666666666666" y="701.6666666666666" text-anchor="middle" class="small" fill="#202426">-318</text>
<rect x="243.33333333333331" y="676.6666666666666" width="82.33333333333333" height="40.666666666666664" rx="0" fill="#f1f2ed" stroke="#ffffff" opacity="1.0"/>
<text x="285.0" y="701.6666666666666" text-anchor="middle" class="small" fill="#202426">8</text>
<rect x="326.66666666666663" y="676.6666666666666" width="82.33333333333333" height="40.666666666666664" rx="0" fill="#90adb4" stroke="#ffffff" opacity="1.0"/>
<text x="368.3333333333333" y="701.6666666666666" text-anchor="middle" class="small" fill="#202426">333</text>
<rect x="410.0" y="676.6666666666666" width="82.33333333333333" height="40.666666666666664" rx="0" fill="#2e687b" stroke="#ffffff" opacity="1.0"/>
<text x="451.6666666666667" y="701.6666666666666" text-anchor="middle" class="small" fill="#ffffff">658</text>
<rect x="493.3333333333333" y="676.6666666666666" width="82.33333333333333" height="40.666666666666664" rx="0" fill="#225f74" stroke="#ffffff" opacity="1.0"/>
<text x="535.0" y="701.6666666666666" text-anchor="middle" class="small" fill="#ffffff">984</text>
<rect x="576.6666666666666" y="676.6666666666666" width="82.33333333333333" height="40.666666666666664" rx="0" fill="#225f74" stroke="#ffffff" opacity="1.0"/>
<text x="618.3333333333333" y="701.6666666666666" text-anchor="middle" class="small" fill="#ffffff">1309</text>
<text x="152" y="742.5" text-anchor="end" class="axis">1.5</text>
<rect x="160.0" y="718.3333333333334" width="82.33333333333333" height="40.666666666666664" rx="0" fill="#d29599" stroke="#ffffff" opacity="1.0"/>
<text x="201.66666666666666" y="743.3333333333334" text-anchor="middle" class="small" fill="#ffffff">-400</text>
<rect x="243.33333333333331" y="718.3333333333334" width="82.33333333333333" height="40.666666666666664" rx="0" fill="#ede2de" stroke="#ffffff" opacity="1.0"/>
<text x="285.0" y="743.3333333333334" text-anchor="middle" class="small" fill="#202426">-75</text>
<rect x="326.66666666666663" y="718.3333333333334" width="82.33333333333333" height="40.666666666666664" rx="0" fill="#a8bfc2" stroke="#ffffff" opacity="1.0"/>
<text x="368.3333333333333" y="743.3333333333334" text-anchor="middle" class="small" fill="#202426">251</text>
<rect x="410.0" y="718.3333333333334" width="82.33333333333333" height="40.666666666666664" rx="0" fill="#47798a" stroke="#ffffff" opacity="1.0"/>
<text x="451.6666666666667" y="743.3333333333334" text-anchor="middle" class="small" fill="#ffffff">576</text>
<rect x="493.3333333333333" y="718.3333333333334" width="82.33333333333333" height="40.666666666666664" rx="0" fill="#225f74" stroke="#ffffff" opacity="1.0"/>
<text x="535.0" y="743.3333333333334" text-anchor="middle" class="small" fill="#ffffff">901</text>
<rect x="576.6666666666666" y="718.3333333333334" width="82.33333333333333" height="40.666666666666664" rx="0" fill="#225f74" stroke="#ffffff" opacity="1.0"/>
<text x="618.3333333333333" y="743.3333333333334" text-anchor="middle" class="small" fill="#ffffff">1227</text>
<text x="152" y="784.1666666666666" text-anchor="end" class="axis">2.0</text>
<rect x="160.0" y="760.0" width="82.33333333333333" height="40.666666666666664" rx="0" fill="#cb8188" stroke="#ffffff" opacity="1.0"/>
<text x="201.66666666666666" y="785.0" text-anchor="middle" class="small" fill="#ffffff">-483</text>
<rect x="243.33333333333331" y="760.0" width="82.33333333333333" height="40.666666666666664" rx="0" fill="#e6cecd" stroke="#ffffff" opacity="1.0"/>
<text x="285.0" y="785.0" text-anchor="middle" class="small" fill="#202426">-157</text>
<rect x="326.66666666666663" y="760.0" width="82.33333333333333" height="40.666666666666664" rx="0" fill="#c1d0d1" stroke="#ffffff" opacity="1.0"/>
<text x="368.3333333333333" y="785.0" text-anchor="middle" class="small" fill="#202426">168</text>
<rect x="410.0" y="760.0" width="82.33333333333333" height="40.666666666666664" rx="0" fill="#608b98" stroke="#ffffff" opacity="1.0"/>
<text x="451.6666666666667" y="785.0" text-anchor="middle" class="small" fill="#ffffff">493</text>
<rect x="493.3333333333333" y="760.0" width="82.33333333333333" height="40.666666666666664" rx="0" fill="#225f74" stroke="#ffffff" opacity="1.0"/>
<text x="535.0" y="785.0" text-anchor="middle" class="small" fill="#ffffff">819</text>
<rect x="576.6666666666666" y="760.0" width="82.33333333333333" height="40.666666666666664" rx="0" fill="#225f74" stroke="#ffffff" opacity="1.0"/>
<text x="618.3333333333333" y="785.0" text-anchor="middle" class="small" fill="#ffffff">1144</text>
<text x="152" y="825.8333333333333" text-anchor="end" class="axis">2.5</text>
<rect x="160.0" y="801.6666666666666" width="82.33333333333333" height="40.666666666666664" rx="0" fill="#c46d77" stroke="#ffffff" opacity="1.0"/>
<text x="201.66666666666666" y="826.6666666666666" text-anchor="middle" class="small" fill="#ffffff">-565</text>
<rect x="243.33333333333331" y="801.6666666666666" width="82.33333333333333" height="40.666666666666664" rx="0" fill="#dfbbbb" stroke="#ffffff" opacity="1.0"/>
<text x="285.0" y="826.6666666666666" text-anchor="middle" class="small" fill="#202426">-240</text>
<rect x="326.66666666666663" y="801.6666666666666" width="82.33333333333333" height="40.666666666666664" rx="0" fill="#d9e2df" stroke="#ffffff" opacity="1.0"/>
<text x="368.3333333333333" y="826.6666666666666" text-anchor="middle" class="small" fill="#202426">86</text>
<rect x="410.0" y="801.6666666666666" width="82.33333333333333" height="40.666666666666664" rx="0" fill="#789da6" stroke="#ffffff" opacity="1.0"/>
<text x="451.6666666666667" y="826.6666666666666" text-anchor="middle" class="small" fill="#ffffff">411</text>
<rect x="493.3333333333333" y="801.6666666666666" width="82.33333333333333" height="40.666666666666664" rx="0" fill="#225f74" stroke="#ffffff" opacity="1.0"/>
<text x="535.0" y="826.6666666666666" text-anchor="middle" class="small" fill="#ffffff">736</text>
<rect x="576.6666666666666" y="801.6666666666666" width="82.33333333333333" height="40.666666666666664" rx="0" fill="#225f74" stroke="#ffffff" opacity="1.0"/>
<text x="618.3333333333333" y="826.6666666666666" text-anchor="middle" class="small" fill="#ffffff">1062</text>
<text x="152" y="867.4999999999999" text-anchor="end" class="axis">3.0</text>
<rect x="160.0" y="843.3333333333333" width="82.33333333333333" height="40.666666666666664" rx="0" fill="#bd5965" stroke="#ffffff" opacity="1.0"/>
<text x="201.66666666666666" y="868.3333333333333" text-anchor="middle" class="small" fill="#ffffff">-648</text>
<rect x="243.33333333333331" y="843.3333333333333" width="82.33333333333333" height="40.666666666666664" rx="0" fill="#d8a7aa" stroke="#ffffff" opacity="1.0"/>
<text x="285.0" y="868.3333333333333" text-anchor="middle" class="small" fill="#202426">-322</text>
<rect x="326.66666666666663" y="843.3333333333333" width="82.33333333333333" height="40.666666666666664" rx="0" fill="#f2f3ed" stroke="#ffffff" opacity="1.0"/>
<text x="368.3333333333333" y="868.3333333333333" text-anchor="middle" class="small" fill="#202426">3</text>
<rect x="410.0" y="843.3333333333333" width="82.33333333333333" height="40.666666666666664" rx="0" fill="#91aeb5" stroke="#ffffff" opacity="1.0"/>
<text x="451.6666666666667" y="868.3333333333333" text-anchor="middle" class="small" fill="#202426">328</text>
<rect x="493.3333333333333" y="843.3333333333333" width="82.33333333333333" height="40.666666666666664" rx="0" fill="#30697c" stroke="#ffffff" opacity="1.0"/>
<text x="535.0" y="868.3333333333333" text-anchor="middle" class="small" fill="#ffffff">654</text>
<rect x="576.6666666666666" y="843.3333333333333" width="82.33333333333333" height="40.666666666666664" rx="0" fill="#225f74" stroke="#ffffff" opacity="1.0"/>
<text x="618.3333333333333" y="868.3333333333333" text-anchor="middle" class="small" fill="#ffffff">979</text>
<text x="410" y="930" text-anchor="middle" class="axis">SAF price (USD/kg)</text>
<text x="95" y="765" text-anchor="middle" class="axis">H2 price</text>
<rect x="780" y="552" width="760" height="450" rx="8" fill="#f7f9f9" stroke="#d6dedf"/>
<text x="792" y="574" class="panelletter">d</text>
<text x="818" y="573" class="paneltitle">Electro-formate surface: product price vs power price</text>
<text x="986.6666666666666" y="627" text-anchor="middle" class="axis">1.5</text>
<text x="1070.0" y="627" text-anchor="middle" class="axis">2.0</text>
<text x="1153.3333333333335" y="627" text-anchor="middle" class="axis">2.5</text>
<text x="1236.6666666666667" y="627" text-anchor="middle" class="axis">3.0</text>
<text x="1320.0" y="627" text-anchor="middle" class="axis">3.5</text>
<text x="1403.3333333333333" y="627" text-anchor="middle" class="axis">4.0</text>
<text x="937" y="659.1666666666666" text-anchor="end" class="axis">10.0</text>
<rect x="945.0" y="635.0" width="82.33333333333333" height="40.666666666666664" rx="0" fill="#d49a9f" stroke="#ffffff" opacity="1.0"/>
<text x="986.6666666666666" y="660.0" text-anchor="middle" class="small" fill="#202426">-268</text>
<rect x="1028.3333333333333" y="635.0" width="82.33333333333333" height="40.666666666666664" rx="0" fill="#e7d2d0" stroke="#ffffff" opacity="1.0"/>
<text x="1070.0" y="660.0" text-anchor="middle" class="small" fill="#202426">-102</text>
<rect x="1111.6666666666667" y="635.0" width="82.33333333333333" height="40.666666666666664" rx="0" fill="#d9e1df" stroke="#ffffff" opacity="1.0"/>
<text x="1153.3333333333335" y="660.0" text-anchor="middle" class="small" fill="#202426">63</text>
<rect x="1195.0" y="635.0" width="82.33333333333333" height="40.666666666666664" rx="0" fill="#93b0b6" stroke="#ffffff" opacity="1.0"/>
<text x="1236.6666666666667" y="660.0" text-anchor="middle" class="small" fill="#202426">229</text>
<rect x="1278.3333333333333" y="635.0" width="82.33333333333333" height="40.666666666666664" rx="0" fill="#4e7e8e" stroke="#ffffff" opacity="1.0"/>
<text x="1320.0" y="660.0" text-anchor="middle" class="small" fill="#ffffff">394</text>
<rect x="1361.6666666666665" y="635.0" width="82.33333333333333" height="40.666666666666664" rx="0" fill="#225f74" stroke="#ffffff" opacity="1.0"/>
<text x="1403.3333333333333" y="660.0" text-anchor="middle" class="small" fill="#ffffff">560</text>
<text x="937" y="700.8333333333333" text-anchor="end" class="axis">25.0</text>
<rect x="945.0" y="676.6666666666666" width="82.33333333333333" height="40.666666666666664" rx="0" fill="#d08f95" stroke="#ffffff" opacity="1.0"/>
<text x="986.6666666666666" y="701.6666666666666" text-anchor="middle" class="small" fill="#202426">-301</text>
<rect x="1028.3333333333333" y="676.6666666666666" width="82.33333333333333" height="40.666666666666664" rx="0" fill="#e3c7c6" stroke="#ffffff" opacity="1.0"/>
<text x="1070.0" y="701.6666666666666" text-anchor="middle" class="small" fill="#202426">-136</text>
<rect x="1111.6666666666667" y="676.6666666666666" width="82.33333333333333" height="40.666666666666664" rx="0" fill="#e6ebe7" stroke="#ffffff" opacity="1.0"/>
<text x="1153.3333333333335" y="701.6666666666666" text-anchor="middle" class="small" fill="#202426">30</text>
<rect x="1195.0" y="676.6666666666666" width="82.33333333333333" height="40.666666666666664" rx="0" fill="#a1babe" stroke="#ffffff" opacity="1.0"/>
<text x="1236.6666666666667" y="701.6666666666666" text-anchor="middle" class="small" fill="#202426">196</text>
<rect x="1278.3333333333333" y="676.6666666666666" width="82.33333333333333" height="40.666666666666664" rx="0" fill="#5c8896" stroke="#ffffff" opacity="1.0"/>
<text x="1320.0" y="701.6666666666666" text-anchor="middle" class="small" fill="#ffffff">361</text>
<rect x="1361.6666666666665" y="676.6666666666666" width="82.33333333333333" height="40.666666666666664" rx="0" fill="#225f74" stroke="#ffffff" opacity="1.0"/>
<text x="1403.3333333333333" y="701.6666666666666" text-anchor="middle" class="small" fill="#ffffff">527</text>
<text x="937" y="742.5" text-anchor="end" class="axis">50.0</text>
<rect x="945.0" y="718.3333333333334" width="82.33333333333333" height="40.666666666666664" rx="0" fill="#ca7d85" stroke="#ffffff" opacity="1.0"/>
<text x="986.6666666666666" y="743.3333333333334" text-anchor="middle" class="small" fill="#ffffff">-356</text>
<rect x="1028.3333333333333" y="718.3333333333334" width="82.33333333333333" height="40.666666666666664" rx="0" fill="#ddb4b6" stroke="#ffffff" opacity="1.0"/>
<text x="1070.0" y="743.3333333333334" text-anchor="middle" class="small" fill="#202426">-191</text>
<rect x="1111.6666666666667" y="718.3333333333334" width="82.33333333333333" height="40.666666666666664" rx="0" fill="#f0ece7" stroke="#ffffff" opacity="1.0"/>
<text x="1153.3333333333335" y="743.3333333333334" text-anchor="middle" class="small" fill="#202426">-25</text>
<rect x="1195.0" y="718.3333333333334" width="82.33333333333333" height="40.666666666666664" rx="0" fill="#b8cacc" stroke="#ffffff" opacity="1.0"/>
<text x="1236.6666666666667" y="743.3333333333334" text-anchor="middle" class="small" fill="#202426">141</text>
<rect x="1278.3333333333333" y="718.3333333333334" width="82.33333333333333" height="40.666666666666664" rx="0" fill="#7399a3" stroke="#ffffff" opacity="1.0"/>
<text x="1320.0" y="743.3333333333334" text-anchor="middle" class="small" fill="#202426">306</text>
<rect x="1361.6666666666665" y="718.3333333333334" width="82.33333333333333" height="40.666666666666664" rx="0" fill="#2e677b" stroke="#ffffff" opacity="1.0"/>
<text x="1403.3333333333333" y="743.3333333333334" text-anchor="middle" class="small" fill="#ffffff">472</text>
<text x="937" y="784.1666666666666" text-anchor="end" class="axis">75.0</text>
<rect x="945.0" y="760.0" width="82.33333333333333" height="40.666666666666664" rx="0" fill="#c36b74" stroke="#ffffff" opacity="1.0"/>
<text x="986.6666666666666" y="785.0" text-anchor="middle" class="small" fill="#ffffff">-411</text>
<rect x="1028.3333333333333" y="760.0" width="82.33333333333333" height="40.666666666666664" rx="0" fill="#d7a2a5" stroke="#ffffff" opacity="1.0"/>
<text x="1070.0" y="785.0" text-anchor="middle" class="small" fill="#202426">-246</text>
<rect x="1111.6666666666667" y="760.0" width="82.33333333333333" height="40.666666666666664" rx="0" fill="#ead9d6" stroke="#ffffff" opacity="1.0"/>
<text x="1153.3333333333335" y="785.0" text-anchor="middle" class="small" fill="#202426">-80</text>
<rect x="1195.0" y="760.0" width="82.33333333333333" height="40.666666666666664" rx="0" fill="#cfdad9" stroke="#ffffff" opacity="1.0"/>
<text x="1236.6666666666667" y="785.0" text-anchor="middle" class="small" fill="#202426">86</text>
<rect x="1278.3333333333333" y="760.0" width="82.33333333333333" height="40.666666666666664" rx="0" fill="#8aa9b1" stroke="#ffffff" opacity="1.0"/>
<text x="1320.0" y="785.0" text-anchor="middle" class="small" fill="#202426">251</text>
<rect x="1361.6666666666665" y="760.0" width="82.33333333333333" height="40.666666666666664" rx="0" fill="#457888" stroke="#ffffff" opacity="1.0"/>
<text x="1403.3333333333333" y="785.0" text-anchor="middle" class="small" fill="#ffffff">417</text>
<text x="937" y="825.8333333333333" text-anchor="end" class="axis">100.0</text>
<rect x="945.0" y="801.6666666666666" width="82.33333333333333" height="40.666666666666664" rx="0" fill="#bd5864" stroke="#ffffff" opacity="1.0"/>
<text x="986.6666666666666" y="826.6666666666666" text-anchor="middle" class="small" fill="#ffffff">-466</text>
<rect x="1028.3333333333333" y="801.6666666666666" width="82.33333333333333" height="40.666666666666664" rx="0" fill="#d09095" stroke="#ffffff" opacity="1.0"/>
<text x="1070.0" y="826.6666666666666" text-anchor="middle" class="small" fill="#202426">-301</text>
<rect x="1111.6666666666667" y="801.6666666666666" width="82.33333333333333" height="40.666666666666664" rx="0" fill="#e3c7c6" stroke="#ffffff" opacity="1.0"/>
<text x="1153.3333333333335" y="826.6666666666666" text-anchor="middle" class="small" fill="#202426">-135</text>
<rect x="1195.0" y="801.6666666666666" width="82.33333333333333" height="40.666666666666664" rx="0" fill="#e6ebe7" stroke="#ffffff" opacity="1.0"/>
<text x="1236.6666666666667" y="826.6666666666666" text-anchor="middle" class="small" fill="#202426">31</text>
<rect x="1278.3333333333333" y="801.6666666666666" width="82.33333333333333" height="40.666666666666664" rx="0" fill="#a1babe" stroke="#ffffff" opacity="1.0"/>
<text x="1320.0" y="826.6666666666666" text-anchor="middle" class="small" fill="#202426">196</text>
<rect x="1361.6666666666665" y="801.6666666666666" width="82.33333333333333" height="40.666666666666664" rx="0" fill="#5c8896" stroke="#ffffff" opacity="1.0"/>
<text x="1403.3333333333333" y="826.6666666666666" text-anchor="middle" class="small" fill="#ffffff">362</text>
<text x="937" y="867.4999999999999" text-anchor="end" class="axis">125.0</text>
<rect x="945.0" y="843.3333333333333" width="82.33333333333333" height="40.666666666666664" rx="0" fill="#b94d5a" stroke="#ffffff" opacity="1.0"/>
<text x="986.6666666666666" y="868.3333333333333" text-anchor="middle" class="small" fill="#ffffff">-521</text>
<rect x="1028.3333333333333" y="843.3333333333333" width="82.33333333333333" height="40.666666666666664" rx="0" fill="#ca7d85" stroke="#ffffff" opacity="1.0"/>
<text x="1070.0" y="868.3333333333333" text-anchor="middle" class="small" fill="#ffffff">-356</text>
<rect x="1111.6666666666667" y="843.3333333333333" width="82.33333333333333" height="40.666666666666664" rx="0" fill="#ddb4b6" stroke="#ffffff" opacity="1.0"/>
<text x="1153.3333333333335" y="868.3333333333333" text-anchor="middle" class="small" fill="#202426">-190</text>
<rect x="1195.0" y="843.3333333333333" width="82.33333333333333" height="40.666666666666664" rx="0" fill="#f0ece7" stroke="#ffffff" opacity="1.0"/>
<text x="1236.6666666666667" y="868.3333333333333" text-anchor="middle" class="small" fill="#202426">-25</text>
<rect x="1278.3333333333333" y="843.3333333333333" width="82.33333333333333" height="40.666666666666664" rx="0" fill="#b8cacc" stroke="#ffffff" opacity="1.0"/>
<text x="1320.0" y="868.3333333333333" text-anchor="middle" class="small" fill="#202426">141</text>
<rect x="1361.6666666666665" y="843.3333333333333" width="82.33333333333333" height="40.666666666666664" rx="0" fill="#7399a3" stroke="#ffffff" opacity="1.0"/>
<text x="1403.3333333333333" y="868.3333333333333" text-anchor="middle" class="small" fill="#202426">307</text>
<text x="1195" y="930" text-anchor="middle" class="axis">formate price (USD/kg)</text>
<text x="860" y="765" text-anchor="middle" class="axis">power price</text>
</svg>