<svg xmlns="http://www.w3.org/2000/svg" width="1600" height="1180" viewBox="0 0 1600 1180">
<style>text{font-family:Arial,Helvetica,sans-serif;} .mono{font-family:Consolas,monospace;}</style>
<rect x="0.0" y="0.0" width="1600.0" height="1180.0" rx="0.0" fill="#ffffff" stroke="none" stroke-width="1.0"/>
<text x="36.0" y="42.0" font-size="26" font-weight="800" text-anchor="start" fill="#1f2a2e">Figure 1. Allocation grammar: why one captured tonne has different economic fates</text>
<text x="36.0" y="68.0" font-size="13" font-weight="500" text-anchor="start" fill="#5d6b70">Benchmarked after Nature/Joule TEA papers: define the decision unit, screen the source pool, then expose the baseline gap.</text>
<rect x="40.0" y="105.0" width="500.0" height="310.0" rx="7.0" fill="#ffffff" stroke="#dbe4e6" stroke-width="1.0"/>
<text x="54.0" y="132.0" font-size="17" font-weight="800" text-anchor="start" fill="#1f2a2e">a</text>
<text x="82.0" y="132.0" font-size="14" font-weight="800" text-anchor="start" fill="#1f2a2e">Source-pool funnel, not national total emissions</text>
<text x="70.0" y="181.0" font-size="10" font-weight="800" text-anchor="start" fill="#1f2a2e">China annual CO2</text>
<rect x="230.0" y="165.0" width="243.0" height="24.0" rx="3.0" fill="#cbd5d8" stroke="none" stroke-width="1"/>
<text x="488.0" y="182.0" font-size="10" font-weight="800" text-anchor="end" fill="#1f2a2e">11.9 Gt/yr</text>
<text x="70.0" y="229.0" font-size="10" font-weight="800" text-anchor="start" fill="#1f2a2e">large point-source pool</text>
<rect x="230.0" y="213.0" width="142.9" height="24.0" rx="3.0" fill="#1f6377" stroke="none" stroke-width="1"/>
<text x="488.0" y="230.0" font-size="10" font-weight="800" text-anchor="end" fill="#1f2a2e">7 Gt/yr</text>
<text x="70.0" y="277.0" font-size="10" font-weight="800" text-anchor="start" fill="#1f2a2e">2030 positive routes</text>
<rect x="230.0" y="261.0" width="0.0" height="24.0" rx="3.0" fill="#b84f5f" stroke="none" stroke-width="1"/>
<text x="488.0" y="278.0" font-size="10" font-weight="800" text-anchor="end" fill="#1f2a2e">0 Gt/yr</text>
<text x="70.0" y="325.0" font-size="10" font-weight="800" text-anchor="start" fill="#1f2a2e">2035 first openings</text>
<rect x="230.0" y="309.0" width="0.7" height="24.0" rx="3.0" fill="#3b9165" stroke="none" stroke-width="1"/>
<text x="488.0" y="326.0" font-size="10" font-weight="800" text-anchor="end" fill="#1f2a2e">0.035 Gt/yr</text>
<text x="70.0" y="372.0" font-size="8" font-weight="600" text-anchor="start" fill="#5d6b70">Remaining emissions are not impossible to capture; they are outside the first large-point-source screen.</text>
<rect x="570.0" y="105.0" width="480.0" height="310.0" rx="7.0" fill="#ffffff" stroke="#dbe4e6" stroke-width="1.0"/>
<text x="584.0" y="132.0" font-size="17" font-weight="800" text-anchor="start" fill="#1f2a2e">b</text>
<text x="612.0" y="132.0" font-size="14" font-weight="800" text-anchor="start" fill="#1f2a2e">Route families and hard constraints</text>
<text x="731.0" y="151.0" font-size="7" font-weight="800" text-anchor="middle" fill="#5d6b70">durable</text>
<text x="783.0" y="151.0" font-size="7" font-weight="800" text-anchor="middle" fill="#5d6b70">clean</text>
<text x="835.0" y="151.0" font-size="7" font-weight="800" text-anchor="middle" fill="#5d6b70">H2</text>
<text x="887.0" y="151.0" font-size="7" font-weight="800" text-anchor="middle" fill="#5d6b70">market</text>
<text x="939.0" y="151.0" font-size="7" font-weight="800" text-anchor="middle" fill="#5d6b70">storage</text>
<text x="991.0" y="151.0" font-size="7" font-weight="800" text-anchor="middle" fill="#5d6b70">policy</text>
<text x="602.0" y="184.0" font-size="9" font-weight="800" text-anchor="start" fill="#1f2a2e">Storage</text>
<rect x="705.0" y="165.0" width="48.0" height="25.0" rx="2.0" fill="#348a66" stroke="#ffffff" stroke-width="0.4"/>
<text x="731.0" y="183.0" font-size="8" font-weight="800" text-anchor="middle" fill="#1f2a2e">2</text>
<rect x="757.0" y="165.0" width="48.0" height="25.0" rx="2.0" fill="#d8e7df" stroke="#ffffff" stroke-width="0.4"/>
<text x="783.0" y="183.0" font-size="8" font-weight="800" text-anchor="middle" fill="#1f2a2e">1</text>
<rect x="809.0" y="165.0" width="48.0" height="25.0" rx="2.0" fill="#eef2f3" stroke="#ffffff" stroke-width="0.4"/>
<text x="835.0" y="183.0" font-size="8" font-weight="800" text-anchor="middle" fill="#1f2a2e">0</text>
<rect x="861.0" y="165.0" width="48.0" height="25.0" rx="2.0" fill="#eef2f3" stroke="#ffffff" stroke-width="0.4"/>
<text x="887.0" y="183.0" font-size="8" font-weight="800" text-anchor="middle" fill="#1f2a2e">0</text>
<rect x="913.0" y="165.0" width="48.0" height="25.0" rx="2.0" fill="#348a66" stroke="#ffffff" stroke-width="0.4"/>
<text x="939.0" y="183.0" font-size="8" font-weight="800" text-anchor="middle" fill="#1f2a2e">2</text>
<rect x="965.0" y="165.0" width="48.0" height="25.0" rx="2.0" fill="#348a66" stroke="#ffffff" stroke-width="0.4"/>
<text x="991.0" y="183.0" font-size="8" font-weight="800" text-anchor="middle" fill="#1f2a2e">2</text>
<text x="602.0" y="213.0" font-size="9" font-weight="800" text-anchor="start" fill="#1f2a2e">Mineralization</text>
<rect x="705.0" y="194.0" width="48.0" height="25.0" rx="2.0" fill="#348a66" stroke="#ffffff" stroke-width="0.4"/>
<text x="731.0" y="212.0" font-size="8" font-weight="800" text-anchor="middle" fill="#1f2a2e">2</text>
<rect x="757.0" y="194.0" width="48.0" height="25.0" rx="2.0" fill="#d8e7df" stroke="#ffffff" stroke-width="0.4"/>
<text x="783.0" y="212.0" font-size="8" font-weight="800" text-anchor="middle" fill="#1f2a2e">1</text>
<rect x="809.0" y="194.0" width="48.0" height="25.0" rx="2.0" fill="#eef2f3" stroke="#ffffff" stroke-width="0.4"/>
<text x="835.0" y="212.0" font-size="8" font-weight="800" text-anchor="middle" fill="#1f2a2e">0</text>
<rect x="861.0" y="194.0" width="48.0" height="25.0" rx="2.0" fill="#348a66" stroke="#ffffff" stroke-width="0.4"/>
<text x="887.0" y="212.0" font-size="8" font-weight="800" text-anchor="middle" fill="#1f2a2e">2</text>
<rect x="913.0" y="194.0" width="48.0" height="25.0" rx="2.0" fill="#d8e7df" stroke="#ffffff" stroke-width="0.4"/>
<text x="939.0" y="212.0" font-size="8" font-weight="800" text-anchor="middle" fill="#1f2a2e">1</text>
<rect x="965.0" y="194.0" width="48.0" height="25.0" rx="2.0" fill="#d8e7df" stroke="#ffffff" stroke-width="0.4"/>
<text x="991.0" y="212.0" font-size="8" font-weight="800" text-anchor="middle" fill="#1f2a2e">1</text>
<text x="602.0" y="242.0" font-size="9" font-weight="800" text-anchor="start" fill="#1f2a2e">FT-SAF</text>
<rect x="705.0" y="223.0" width="48.0" height="25.0" rx="2.0" fill="#eef2f3" stroke="#ffffff" stroke-width="0.4"/>
<text x="731.0" y="241.0" font-size="8" font-weight="800" text-anchor="middle" fill="#1f2a2e">0</text>
<rect x="757.0" y="223.0" width="48.0" height="25.0" rx="2.0" fill="#348a66" stroke="#ffffff" stroke-width="0.4"/>
<text x="783.0" y="241.0" font-size="8" font-weight="800" text-anchor="middle" fill="#1f2a2e">2</text>
<rect x="809.0" y="223.0" width="48.0" height="25.0" rx="2.0" fill="#348a66" stroke="#ffffff" stroke-width="0.4"/>
<text x="835.0" y="241.0" font-size="8" font-weight="800" text-anchor="middle" fill="#1f2a2e">2</text>
<rect x="861.0" y="223.0" width="48.0" height="25.0" rx="2.0" fill="#348a66" stroke="#ffffff" stroke-width="0.4"/>
<text x="887.0" y="241.0" font-size="8" font-weight="800" text-anchor="middle" fill="#1f2a2e">2</text>
<rect x="913.0" y="223.0" width="48.0" height="25.0" rx="2.0" fill="#eef2f3" stroke="#ffffff" stroke-width="0.4"/>
<text x="939.0" y="241.0" font-size="8" font-weight="800" text-anchor="middle" fill="#1f2a2e">0</text>
<rect x="965.0" y="223.0" width="48.0" height="25.0" rx="2.0" fill="#d8e7df" stroke="#ffffff" stroke-width="0.4"/>
<text x="991.0" y="241.0" font-size="8" font-weight="800" text-anchor="middle" fill="#1f2a2e">1</text>
<text x="602.0" y="271.0" font-size="9" font-weight="800" text-anchor="start" fill="#1f2a2e">RWGS-CO</text>
<rect x="705.0" y="252.0" width="48.0" height="25.0" rx="2.0" fill="#eef2f3" stroke="#ffffff" stroke-width="0.4"/>
<text x="731.0" y="270.0" font-size="8" font-weight="800" text-anchor="middle" fill="#1f2a2e">0</text>
<rect x="757.0" y="252.0" width="48.0" height="25.0" rx="2.0" fill="#348a66" stroke="#ffffff" stroke-width="0.4"/>
<text x="783.0" y="270.0" font-size="8" font-weight="800" text-anchor="middle" fill="#1f2a2e">2</text>
<rect x="809.0" y="252.0" width="48.0" height="25.0" rx="2.0" fill="#348a66" stroke="#ffffff" stroke-width="0.4"/>
<text x="835.0" y="270.0" font-size="8" font-weight="800" text-anchor="middle" fill="#1f2a2e">2</text>
<rect x="861.0" y="252.0" width="48.0" height="25.0" rx="2.0" fill="#d8e7df" stroke="#ffffff" stroke-width="0.4"/>
<text x="887.0" y="270.0" font-size="8" font-weight="800" text-anchor="middle" fill="#1f2a2e">1</text>
<rect x="913.0" y="252.0" width="48.0" height="25.0" rx="2.0" fill="#eef2f3" stroke="#ffffff" stroke-width="0.4"/>
<text x="939.0" y="270.0" font-size="8" font-weight="800" text-anchor="middle" fill="#1f2a2e">0</text>
<rect x="965.0" y="252.0" width="48.0" height="25.0" rx="2.0" fill="#d8e7df" stroke="#ffffff" stroke-width="0.4"/>
<text x="991.0" y="270.0" font-size="8" font-weight="800" text-anchor="middle" fill="#1f2a2e">1</text>
<text x="602.0" y="300.0" font-size="9" font-weight="800" text-anchor="start" fill="#1f2a2e">E-formate</text>
<rect x="705.0" y="281.0" width="48.0" height="25.0" rx="2.0" fill="#eef2f3" stroke="#ffffff" stroke-width="0.4"/>
<text x="731.0" y="299.0" font-size="8" font-weight="800" text-anchor="middle" fill="#1f2a2e">0</text>
<rect x="757.0" y="281.0" width="48.0" height="25.0" rx="2.0" fill="#348a66" stroke="#ffffff" stroke-width="0.4"/>
<text x="783.0" y="299.0" font-size="8" font-weight="800" text-anchor="middle" fill="#1f2a2e">2</text>
<rect x="809.0" y="281.0" width="48.0" height="25.0" rx="2.0" fill="#eef2f3" stroke="#ffffff" stroke-width="0.4"/>
<text x="835.0" y="299.0" font-size="8" font-weight="800" text-anchor="middle" fill="#1f2a2e">0</text>
<rect x="861.0" y="281.0" width="48.0" height="25.0" rx="2.0" fill="#348a66" stroke="#ffffff" stroke-width="0.4"/>
<text x="887.0" y="299.0" font-size="8" font-weight="800" text-anchor="middle" fill="#1f2a2e">2</text>
<rect x="913.0" y="281.0" width="48.0" height="25.0" rx="2.0" fill="#eef2f3" stroke="#ffffff" stroke-width="0.4"/>
<text x="939.0" y="299.0" font-size="8" font-weight="800" text-anchor="middle" fill="#1f2a2e">0</text>
<rect x="965.0" y="281.0" width="48.0" height="25.0" rx="2.0" fill="#d8e7df" stroke="#ffffff" stroke-width="0.4"/>
<text x="991.0" y="299.0" font-size="8" font-weight="800" text-anchor="middle" fill="#1f2a2e">1</text>
<text x="602.0" y="329.0" font-size="9" font-weight="800" text-anchor="start" fill="#1f2a2e">PEC-formate</text>
<rect x="705.0" y="310.0" width="48.0" height="25.0" rx="2.0" fill="#eef2f3" stroke="#ffffff" stroke-width="0.4"/>
<text x="731.0" y="328.0" font-size="8" font-weight="800" text-anchor="middle" fill="#1f2a2e">0</text>
<rect x="757.0" y="310.0" width="48.0" height="25.0" rx="2.0" fill="#348a66" stroke="#ffffff" stroke-width="0.4"/>
<text x="783.0" y="328.0" font-size="8" font-weight="800" text-anchor="middle" fill="#1f2a2e">2</text>
<rect x="809.0" y="310.0" width="48.0" height="25.0" rx="2.0" fill="#eef2f3" stroke="#ffffff" stroke-width="0.4"/>
<text x="835.0" y="328.0" font-size="8" font-weight="800" text-anchor="middle" fill="#1f2a2e">0</text>
<rect x="861.0" y="310.0" width="48.0" height="25.0" rx="2.0" fill="#d8e7df" stroke="#ffffff" stroke-width="0.4"/>
<text x="887.0" y="328.0" font-size="8" font-weight="800" text-anchor="middle" fill="#1f2a2e">1</text>
<rect x="913.0" y="310.0" width="48.0" height="25.0" rx="2.0" fill="#eef2f3" stroke="#ffffff" stroke-width="0.4"/>
<text x="939.0" y="328.0" font-size="8" font-weight="800" text-anchor="middle" fill="#1f2a2e">0</text>
<rect x="965.0" y="310.0" width="48.0" height="25.0" rx="2.0" fill="#d8e7df" stroke="#ffffff" stroke-width="0.4"/>
<text x="991.0" y="328.0" font-size="8" font-weight="800" text-anchor="middle" fill="#1f2a2e">1</text>
<text x="602.0" y="358.0" font-size="9" font-weight="800" text-anchor="start" fill="#1f2a2e">Defer/hub</text>
<rect x="705.0" y="339.0" width="48.0" height="25.0" rx="2.0" fill="#d8e7df" stroke="#ffffff" stroke-width="0.4"/>
<text x="731.0" y="357.0" font-size="8" font-weight="800" text-anchor="middle" fill="#1f2a2e">1</text>
<rect x="757.0" y="339.0" width="48.0" height="25.0" rx="2.0" fill="#d8e7df" stroke="#ffffff" stroke-width="0.4"/>
<text x="783.0" y="357.0" font-size="8" font-weight="800" text-anchor="middle" fill="#1f2a2e">1</text>
<rect x="809.0" y="339.0" width="48.0" height="25.0" rx="2.0" fill="#d8e7df" stroke="#ffffff" stroke-width="0.4"/>
<text x="835.0" y="357.0" font-size="8" font-weight="800" text-anchor="middle" fill="#1f2a2e">1</text>
<rect x="861.0" y="339.0" width="48.0" height="25.0" rx="2.0" fill="#d8e7df" stroke="#ffffff" stroke-width="0.4"/>
<text x="887.0" y="357.0" font-size="8" font-weight="800" text-anchor="middle" fill="#1f2a2e">1</text>
<rect x="913.0" y="339.0" width="48.0" height="25.0" rx="2.0" fill="#d8e7df" stroke="#ffffff" stroke-width="0.4"/>
<text x="939.0" y="357.0" font-size="8" font-weight="800" text-anchor="middle" fill="#1f2a2e">1</text>
<rect x="965.0" y="339.0" width="48.0" height="25.0" rx="2.0" fill="#d8e7df" stroke="#ffffff" stroke-width="0.4"/>
<text x="991.0" y="357.0" font-size="8" font-weight="800" text-anchor="middle" fill="#1f2a2e">1</text>
<text x="705.0" y="390.0" font-size="8" font-weight="700" text-anchor="start" fill="#5d6b70">0 weak or absent, 1 conditional, 2 central constraint</text>
<rect x="1080.0" y="105.0" width="470.0" height="310.0" rx="7.0" fill="#ffffff" stroke="#dbe4e6" stroke-width="1.0"/>
<text x="1094.0" y="132.0" font-size="17" font-weight="800" text-anchor="start" fill="#1f2a2e">c</text>
<text x="1122.0" y="132.0" font-size="14" font-weight="800" text-anchor="start" fill="#1f2a2e">What the benchmark literature forced into the figures</text>
<line x1="1110.0" y1="154.0" x2="1110.0" y2="378.0" stroke="#8f9ca0" stroke-width="1.2" opacity="1.00" stroke-linecap="round"/>
<text x="1110.0" y="180.8" font-size="9" font-weight="700" text-anchor="start" fill="#1f2a2e">process flow</text>
<rect x="1110.0" y="168.8" width="292.0" height="15.0" rx="2.0" fill="#3b9165" stroke="none" stroke-width="1"/>
<text x="1409.0" y="180.8" font-size="8" font-weight="800" text-anchor="start" fill="#1f2a2e">8.0</text>
<text x="1110.0" y="210.8" font-size="9" font-weight="700" text-anchor="start" fill="#1f2a2e">cost stack</text>
<rect x="1110.0" y="198.8" width="328.5" height="15.0" rx="2.0" fill="#3b9165" stroke="none" stroke-width="1"/>
<text x="1445.5" y="210.8" font-size="8" font-weight="800" text-anchor="start" fill="#1f2a2e">9.0</text>
<text x="1110.0" y="240.8" font-size="9" font-weight="700" text-anchor="start" fill="#1f2a2e">scenario matrix</text>
<rect x="1110.0" y="228.8" width="365.0" height="15.0" rx="2.0" fill="#3b9165" stroke="none" stroke-width="1"/>
<text x="1482.0" y="240.8" font-size="8" font-weight="800" text-anchor="start" fill="#1f2a2e">10.0</text>
<text x="1110.0" y="270.8" font-size="9" font-weight="700" text-anchor="start" fill="#5d6b70">spatial map</text>
<rect x="1110.0" y="258.8" width="146.0" height="15.0" rx="2.0" fill="#d7a13a" stroke="none" stroke-width="1"/>
<text x="1263.0" y="270.8" font-size="8" font-weight="800" text-anchor="start" fill="#1f2a2e">4.0</text>
<text x="1110.0" y="300.8" font-size="9" font-weight="700" text-anchor="start" fill="#5d6b70">uncertainty</text>
<rect x="1110.0" y="288.8" width="219.0" height="15.0" rx="2.0" fill="#3b9165" stroke="none" stroke-width="1"/>
<text x="1336.0" y="300.8" font-size="8" font-weight="800" text-anchor="start" fill="#1f2a2e">6.0</text>
<text x="1110.0" y="330.8" font-size="9" font-weight="700" text-anchor="start" fill="#5d6b70">policy stress</text>
<rect x="1110.0" y="318.8" width="182.5" height="15.0" rx="2.0" fill="#d7a13a" stroke="none" stroke-width="1"/>
<text x="1299.5" y="330.8" font-size="8" font-weight="800" text-anchor="start" fill="#1f2a2e">5.0</text>
<text x="1110.0" y="360.8" font-size="9" font-weight="700" text-anchor="start" fill="#5d6b70">evidence limits</text>
<rect x="1110.0" y="348.8" width="219.0" height="15.0" rx="2.0" fill="#3b9165" stroke="none" stroke-width="1"/>
<text x="1336.0" y="360.8" font-size="8" font-weight="800" text-anchor="start" fill="#1f2a2e">6.0</text>
<text x="1110.0" y="388.0" font-size="8" font-weight="700" text-anchor="start" fill="#5d6b70">12 high-impact economic-analysis papers translated into figure rules.</text>
<rect x="40.0" y="455.0" width="1510.0" height="360.0" rx="7.0" fill="#ffffff" stroke="#dbe4e6" stroke-width="1.0"/>
<text x="54.0" y="482.0" font-size="17" font-weight="800" text-anchor="start" fill="#1f2a2e">d</text>
<text x="82.0" y="482.0" font-size="14" font-weight="800" text-anchor="start" fill="#1f2a2e">Baseline gap and 2060 opening</text>
<line x1="95.0" y1="750.0" x2="655.0" y2="750.0" stroke="#96a2a6" stroke-width="1.3" opacity="1.00" stroke-linecap="round"/>
<line x1="95.0" y1="540.0" x2="95.0" y2="750.0" stroke="#96a2a6" stroke-width="1.3" opacity="1.00" stroke-linecap="round"/>
<circle cx="95.0" cy="743.9" r="6.0" fill="#b84f5f" stroke="#ffffff" stroke-width="1.0" opacity="1.00"/>
<text x="95.0" y="775.0" font-size="8" font-weight="700" text-anchor="middle" fill="#5d6b70">2030</text>
<circle cx="188.3" cy="729.2" r="6.0" fill="#2f8f83" stroke="#ffffff" stroke-width="1.0" opacity="1.00"/>
<text x="188.3" y="775.0" font-size="8" font-weight="700" text-anchor="middle" fill="#5d6b70">2035</text>
<line x1="95.0" y1="743.9" x2="188.3" y2="729.2" stroke="#2f8f83" stroke-width="2.3" opacity="1.00" stroke-linecap="round"/>
<circle cx="281.7" cy="685.6" r="6.0" fill="#2f8f83" stroke="#ffffff" stroke-width="1.0" opacity="1.00"/>
<text x="281.7" y="775.0" font-size="8" font-weight="700" text-anchor="middle" fill="#5d6b70">2040</text>
<line x1="188.3" y1="729.2" x2="281.7" y2="685.6" stroke="#2f8f83" stroke-width="2.3" opacity="1.00" stroke-linecap="round"/>
<circle cx="375.0" cy="631.3" r="6.0" fill="#2f8f83" stroke="#ffffff" stroke-width="1.0" opacity="1.00"/>
<text x="375.0" y="775.0" font-size="8" font-weight="700" text-anchor="middle" fill="#5d6b70">2045</text>
<line x1="281.7" y1="685.6" x2="375.0" y2="631.3" stroke="#2f8f83" stroke-width="2.3" opacity="1.00" stroke-linecap="round"/>
<circle cx="468.3" cy="591.7" r="6.0" fill="#2f8f83" stroke="#ffffff" stroke-width="1.0" opacity="1.00"/>
<text x="468.3" y="775.0" font-size="8" font-weight="700" text-anchor="middle" fill="#5d6b70">2050</text>
<line x1="375.0" y1="631.3" x2="468.3" y2="591.7" stroke="#2f8f83" stroke-width="2.3" opacity="1.00" stroke-linecap="round"/>
<circle cx="561.7" cy="564.0" r="6.0" fill="#2f8f83" stroke="#ffffff" stroke-width="1.0" opacity="1.00"/>
<text x="561.7" y="775.0" font-size="8" font-weight="700" text-anchor="middle" fill="#5d6b70">2055</text>
<line x1="468.3" y1="591.7" x2="561.7" y2="564.0" stroke="#2f8f83" stroke-width="2.3" opacity="1.00" stroke-linecap="round"/>
<circle cx="655.0" cy="546.2" r="6.0" fill="#2f8f83" stroke="#ffffff" stroke-width="1.0" opacity="1.00"/>
<text x="655.0" y="775.0" font-size="8" font-weight="700" text-anchor="middle" fill="#5d6b70">2060</text>
<line x1="561.7" y1="564.0" x2="655.0" y2="546.2" stroke="#2f8f83" stroke-width="2.3" opacity="1.00" stroke-linecap="round"/>
<text x="375.0" y="522.0" font-size="10" font-weight="800" text-anchor="middle" fill="#1f2a2e">best route margin (USD/tCO2)</text>
<rect x="750.0" y="750.0" width="42.0" height="0.0" rx="3.0" fill="rgb(231,246,235)" stroke="none" stroke-width="1"/>
<text x="771.0" y="775.0" font-size="8" font-weight="700" text-anchor="middle" fill="#5d6b70">2030</text>
<rect x="840.0" y="747.2" width="42.0" height="2.8" rx="3.0" fill="rgb(228,243,232)" stroke="none" stroke-width="1"/>
<text x="861.0" y="775.0" font-size="8" font-weight="700" text-anchor="middle" fill="#5d6b70">2035</text>
<text x="861.0" y="740.2" font-size="8" font-weight="800" text-anchor="middle" fill="#1f2a2e">66</text>
<rect x="930.0" y="678.4" width="42.0" height="71.6" rx="3.0" fill="rgb(155,193,169)" stroke="none" stroke-width="1"/>
<text x="951.0" y="775.0" font-size="8" font-weight="700" text-anchor="middle" fill="#5d6b70">2040</text>
<text x="951.0" y="671.4" font-size="8" font-weight="800" text-anchor="middle" fill="#1f2a2e">1695</text>
<rect x="1020.0" y="633.5" width="42.0" height="116.5" rx="3.0" fill="rgb(107,160,128)" stroke="none" stroke-width="1"/>
<text x="1041.0" y="775.0" font-size="8" font-weight="700" text-anchor="middle" fill="#5d6b70">2045</text>
<text x="1041.0" y="626.5" font-size="8" font-weight="800" text-anchor="middle" fill="#1f2a2e">2758</text>
<rect x="1110.0" y="617.5" width="42.0" height="132.5" rx="3.0" fill="rgb(90,148,113)" stroke="none" stroke-width="1"/>
<text x="1131.0" y="775.0" font-size="8" font-weight="700" text-anchor="middle" fill="#5d6b70">2050</text>
<text x="1131.0" y="610.5" font-size="8" font-weight="800" text-anchor="middle" fill="#1f2a2e">3137</text>
<rect x="1200.0" y="589.2" width="42.0" height="160.8" rx="3.0" fill="rgb(60,128,87)" stroke="none" stroke-width="1"/>
<text x="1221.0" y="775.0" font-size="8" font-weight="700" text-anchor="middle" fill="#5d6b70">2055</text>
<text x="1221.0" y="582.2" font-size="8" font-weight="800" text-anchor="middle" fill="#1f2a2e">3806</text>
<rect x="1290.0" y="570.0" width="42.0" height="180.0" rx="3.0" fill="rgb(40,114,70)" stroke="none" stroke-width="1"/>
<text x="1311.0" y="775.0" font-size="8" font-weight="700" text-anchor="middle" fill="#5d6b70">2060</text>
<text x="1311.0" y="563.0" font-size="8" font-weight="800" text-anchor="middle" fill="#1f2a2e">4260</text>
<text x="1040.0" y="522.0" font-size="10" font-weight="800" text-anchor="middle" fill="#1f2a2e">positive route candidates</text>
<rect x="1280.0" y="560.0" width="205.0" height="92.0" rx="5.0" fill="#edf5f1" stroke="#c8dbd3" stroke-width="1"/>
<text x="1382.0" y="592.0" font-size="12" font-weight="800" text-anchor="middle" fill="#1f2a2e">Interpretation</text>
<text x="1382.0" y="620.0" font-size="9" font-weight="700" text-anchor="middle" fill="#5d6b70">current economics fail broadly</text>
<text x="1382.0" y="642.0" font-size="9" font-weight="800" text-anchor="middle" fill="#2f8f83">optimism is conditional</text>
</svg>
